<svg xmlns="http://www.w3.org/2000/svg" width="96" height="32" fill="#2243b6" xmlns:v="https://vecta.io/nano"><path d="M34.65 27.65c-.2 6-8.5 5.55-8.65.1.13-5.96 8.58-5.56 8.65-.1zm15.2-19.38c1.44 0 2.6.42 3.42 1.26.85.84 1.28 2.08 1.28 3.73v6.62h-2.08V13.5c0-1.1-.26-1.95-.78-2.52-.5-.56-1.24-.85-2.2-.85a3.2 3.2 0 0 0-2.5 1c-.62.65-.93 1.6-.93 2.82v5.92h-2.08V13.5c0-1.1-.26-1.95-.78-2.52-.5-.56-1.24-.85-2.2-.85a3.2 3.2 0 0 0-2.5 1c-.62.65-.93 1.6-.93 2.82v5.92H35.5V8.38h2v1.7c.42-.6.97-1.04 1.65-1.34a5.4 5.4 0 0 1 2.32-.48 5.1 5.1 0 0 1 2.38.54c.7.36 1.23.9 1.6 1.58a4.4 4.4 0 0 1 1.8-1.56 5.9 5.9 0 0 1 2.62-.56zm18.97 5.93c0 .16-.01.37-.04.63h-9.32a3.7 3.7 0 0 0 1.32 2.45c.77.6 1.7.9 2.84.9 1.37 0 2.48-.46 3.32-1.4l1.15 1.34a5 5 0 0 1-1.95 1.39c-.77.32-1.63.48-2.58.48a6.9 6.9 0 0 1-3.23-.74 5.5 5.5 0 0 1-2.19-2.1 6.1 6.1 0 0 1-.76-3.04c0-1.1.25-2.12.74-3.02a5.4 5.4 0 0 1 2.06-2.08 5.9 5.9 0 0 1 2.97-.76 5.6 5.6 0 0 1 2.93.76 5.1 5.1 0 0 1 2.02 2.08 6.3 6.3 0 0 1 .74 3.08zm-5.68-4.16a3.6 3.6 0 0 0-2.5.9 3.7 3.7 0 0 0-1.17 2.39h7.37c-.12-.97-.5-1.76-1.2-2.36a3.5 3.5 0 0 0-2.49-.93zM82.87 8.2L77.6 20.6c-.53 1.34-1.2 2.3-2 2.84a4.8 4.8 0 0 1-2.84.82 5.9 5.9 0 0 1-1.8-.28c-.6-.2-1.08-.45-1.45-.78l1.24-2.4c.26.23.56.4.9.54a2.9 2.9 0 0 0 1.02.2c.46 0 .84-.12 1.13-.35.3-.22.55-.6.78-1.1l.04-.1-5.05-11.8h3.5l3.27 7.92 3.3-7.92h3.25zM96 8.2v11.67h-3.2v-1.4a4.6 4.6 0 0 1-1.6 1.17 5.2 5.2 0 0 1-2.02.4c-1.53 0-2.75-.44-3.64-1.32s-1.34-2.2-1.34-3.93V8.2h3.38v6.1c0 1.88.8 2.82 2.36 2.82.8 0 1.46-.26 1.95-.78.5-.54.74-1.32.74-2.36V8.2H96zM27.6 21.83l-1.36-1.23c-.18-.16-.3-.38-.36-.6s-.03-.48.06-.7a12.3 12.3 0 0 0-1.45-11.74c-1.2-1.68-2.82-3.02-4.7-3.9a12.4 12.4 0 0 0-6-1.16A12.3 12.3 0 0 0 2.3 15.05a12.2 12.2 0 0 0 3.24 7.99c.12.13.27.23.43.3s.34.1.52.07l3.43-4.1c-.05-.17-.13-.33-.24-.46a6.3 6.3 0 0 1-.82-1.22v-.01a5.8 5.8 0 0 1-.6-1.8 6.3 6.3 0 0 1 .15-3.34 6.4 6.4 0 0 1 1.82-2.8c.84-.75 1.88-1.27 3-1.5a6.3 6.3 0 0 1 3.33.23 4.3 4.3 0 0 1 .9.3 5.1 5.1 0 0 1 2.27 2.16 6.6 6.6 0 0 1 .98 2.37c.18.85.15 1.72-.03 2.56a6.3 6.3 0 0 1-1.04 2.34c-.5.7-1.14 1.3-1.88 1.74l5.42 6.66.14.12A14.7 14.7 0 0 1 3.8 24.6C1.37 21.9 0 18.42 0 14.8s1.3-7.13 3.7-9.84a14.7 14.7 0 0 1 19.49-2.28c2.96 2.1 5.05 5.2 5.86 8.72a14.7 14.7 0 0 1-1.45 10.4h0z"/></svg>