<svg xmlns="http://www.w3.org/2000/svg" width="97" height="97" fill="#ffa819" xmlns:v="https://vecta.io/nano"><path d="M34.07 68.78c-.14-.04-.27-.06-.42-.07a12 12 0 0 0 3.32-8.28V43.5c0-.5-.2-.97-.55-1.32s-.83-.55-1.32-.55H22.56a9.6 9.6 0 0 0-9.64 9.64v9.18c0 3.08 1.2 6.05 3.32 8.28-.14.01-.27.03-.4.07-4.32.4-8.34 2.4-11.27 5.6A17.4 17.4 0 0 0 0 86.1v8c0 .5.2.97.55 1.32s.83.55 1.32.55h46.15c.25 0 .5-.05.72-.14s.44-.23.6-.4.3-.38.4-.6.14-.47.14-.72v-8c-.01-4.34-1.63-8.52-4.56-11.73s-6.95-5.2-11.27-5.6zM16.67 57.5H29.2c1.4 0 2.78-.38 3.98-1.1v4.05a8.3 8.3 0 0 1-8.28 8.28 8.3 8.3 0 0 1-8.28-8.28l.03-2.93zM29 72.46l-4.08 4.08-4.08-4.08H29zM16.64 51.3c0-1.55.62-3.04 1.72-4.14a5.9 5.9 0 0 1 4.14-1.72h10.73v4.37a4 4 0 0 1-3.98 3.98H16.7v-2.53l-.05.04zm29.48 41H3.75v-3.76h7.8c.5 0 .97-.2 1.32-.55s.55-.83.55-1.32-.2-.97-.55-1.33-.83-.55-1.32-.55h-7.7a13.7 13.7 0 0 1 11.86-12.22l7.94 7.95c.35.35.83.54 1.32.55.5 0 .97-.2 1.32-.55l7.95-7.95c3.3.42 6.32 2.03 8.52 4.53s3.4 5.7 3.4 9.02l-.02 6.18zm34.05-65.17c-.14-.04-.27-.06-.42-.07 2.13-2.22 3.33-5.17 3.35-8.25V8.9c.01-.1.01-.18 0-.27v-6.8c-.01-.5-.2-.97-.57-1.3S81.7-.01 81.2 0H68.66a9.6 9.6 0 0 0-9.64 9.6v9.2c0 3.08 1.2 6.05 3.32 8.28-.14.01-.28.03-.42.07-4.32.4-8.33 2.4-11.26 5.6a17.4 17.4 0 0 0-4.57 11.7v8c0 .5.2.97.55 1.32s.83.55 1.33.55h15.1c.5 0 .97-.2 1.32-.55s.55-.83.55-1.32-.2-.97-.55-1.32-.83-.55-1.32-.55h-13.2v-6.14a13.6 13.6 0 0 1 3.4-9.02c2.2-2.5 5.22-4.1 8.52-4.52l7.94 7.94c.35.35.83.55 1.33.55s.98-.2 1.33-.55l7.94-7.94c3.3.42 6.32 2.03 8.52 4.52a13.6 13.6 0 0 1 3.4 9.02v6.14h-13.8c-.5 0-.97.2-1.32.55s-.55.83-.55 1.32.2.97.55 1.32.83.55 1.32.55h15.68a1.9 1.9 0 0 0 1.33-.55c.36-.35.55-.83.55-1.32v-8c-.01-4.34-1.63-8.52-4.56-11.73a17.4 17.4 0 0 0-11.26-5.6zm-17.4-8.32v-2.96H75.3a7.7 7.7 0 0 0 3.98-1.11v4.07a8.3 8.3 0 0 1-8.27 8.54 8.3 8.3 0 0 1-8.27-8.54h.02zm0-9.18c0-1.55.62-3.04 1.7-4.14a5.8 5.8 0 0 1 4.13-1.72h10.7v4.37a4 4 0 0 1-3.98 3.99H62.8V9.6l-.02.03zm8.28 25.26l-4.08-4.08h8.16l-4.08 4.08zm1.33 18.9c.17-.17.3-.38.4-.6s.14-.47.14-.72-.05-.5-.14-.72-.23-.43-.4-.6c-.26-.26-.6-.44-.96-.5s-.74-.04-1.08.1-.63.38-.84.7-.32.67-.32 1.04.1.73.32 1.04.5.55.84.7.72.18 1.08.1.7-.25.96-.5zM9.4 35.28h23.52a9.3 9.3 0 0 0 5.23-1.58 9.3 9.3 0 0 0 3.45-4.23h7.2c.37 0 .73-.1 1.04-.32s.55-.5.7-.84.18-.72.1-1.08-.25-.7-.52-.96l-7.84-7.84V9.4a9.4 9.4 0 0 0-2.74-6.64A9.4 9.4 0 0 0 32.93 0H9.4A9.4 9.4 0 0 0 0 9.41v16.46a9.4 9.4 0 0 0 9.41 9.41zM3.75 9.4a5.8 5.8 0 0 1 .42-2.17c.28-.7.7-1.3 1.23-1.84s1.15-.94 1.84-1.23a5.4 5.4 0 0 1 2.17-.42h23.52c.74 0 1.47.15 2.16.44s1.3.7 1.83 1.23a5.6 5.6 0 0 1 1.22 1.83 5.7 5.7 0 0 1 .42 2.16v9.76c0 .25.05.5.14.72s.23.43.4.6l5.2 5.2h-4.06c-.42 0-.83.15-1.16.4a1.8 1.8 0 0 0-.65 1.04 5.6 5.6 0 0 1-5.49 4.36H9.4a5.7 5.7 0 0 1-2.16-.42 5.9 5.9 0 0 1-1.84-1.22 5.4 5.4 0 0 1-1.23-1.83c-.3-.7-.43-1.42-.43-2.16V9.4zm82.87 51.35H63.1a9.3 9.3 0 0 0-8.7 5.81h-7.2c-.37 0-.74.1-1.05.3s-.55.5-.7.85a1.8 1.8 0 0 0-.1 1.1c.08.37.26.7.53.96l7.84 7.84v9.02a9.4 9.4 0 0 0 9.41 9.41h23.52a9.4 9.4 0 0 0 9.41-9.41V70.17a9.4 9.4 0 0 0-9.42-9.42zm5.63 25.87c0 1.5-.6 2.92-1.65 3.98s-2.5 1.65-3.98 1.65H63.1c-1.5 0-2.92-.6-3.98-1.65s-1.65-2.5-1.65-3.98v-9.8c0-.25-.05-.5-.14-.72s-.23-.43-.4-.6l-5.18-5.2h4.06c.42 0 .83-.14 1.17-.4s.56-.63.66-1.04a5.6 5.6 0 0 1 5.49-4.36h23.52c1.5 0 2.92.6 3.98 1.65s1.65 2.5 1.65 3.98l-.02 16.5zM80.63 73.38l-5 5.02-2.35-2.3c-.35-.35-.83-.55-1.32-.55s-.97.2-1.33.55-.55.83-.55 1.33.2.97.55 1.32l3.68 3.58a1.9 1.9 0 0 0 1.33.55c.25 0 .5-.05.72-.14s.43-.23.6-.4l6.27-6.3c.35-.35.55-.83.55-1.33s-.2-.98-.55-1.33-.83-.55-1.33-.55-.98.2-1.33.55l.04.03zM18.57 14.75c.5 0 .97-.2 1.32-.55s.55-.83.55-1.32a2.7 2.7 0 0 1 .87-2.01 2.5 2.5 0 0 1 1.1-.62 2.8 2.8 0 0 1 1.25-.07c.42.07.8.24 1.15.48s.62.57.82.94.3.8.32 1.2-.07.84-.25 1.22a3.1 3.1 0 0 1-.76 1c-.32.28-.7.45-1.12.55a3.2 3.2 0 0 0-1.8 1.1 3.1 3.1 0 0 0-.7 1.98v1c.03.48.24.92.6 1.25s.8.5 1.3.5.94-.18 1.3-.5.56-.77.6-1.25v-.55a6.5 6.5 0 0 0 1.99-11.43 6.5 6.5 0 0 0-10.37 5.21c0 .25.05.5.15.72s.23.43.4.6.38.3.6.4.47.14.72.14zm4.63 10.2a1.9 1.9 0 0 0-1.32.55c-.35.35-.55.83-.55 1.32s.2.97.55 1.32.83.55 1.32.55.97-.2 1.32-.55c.26-.26.44-.6.5-.96s.04-.74-.1-1.08-.38-.64-.7-.84-.67-.32-1.04-.32zm-4.17 59.8c-.5 0-.97.2-1.32.55-.26.26-.44.6-.52.96a1.9 1.9 0 0 0 .1 1.1c.14.36.38.64.7.85s.67.32 1.05.32.74-.1 1.05-.32a2 2 0 0 0 .7-.85 1.8 1.8 0 0 0 .1-1.1c-.08-.38-.25-.7-.52-.96a1.9 1.9 0 0 0-1.33-.55z"/></svg>