<svg xmlns="http://www.w3.org/2000/svg" xmlns:xlink="http://www.w3.org/1999/xlink" width="96" height="72" fill="none" xmlns:v="https://vecta.io/nano"><g clip-path="url(#A)" fill="#ffa819"><path d="M94.4 59.2H88V4.8A4.8 4.8 0 0 0 83.2 0H12.8a4.8 4.8 0 0 0-3.39 1.41A4.8 4.8 0 0 0 8 4.8v54.4H1.6a1.6 1.6 0 0 0-1.13.47A1.6 1.6 0 0 0 0 60.8v3.6A7.6 7.6 0 0 0 7.6 72h80.8a7.6 7.6 0 0 0 7.6-7.6v-3.6a1.6 1.6 0 0 0-1.6-1.6zM11.2 4.8a1.6 1.6 0 0 1 1.6-1.6h70.4a1.6 1.6 0 0 1 1.6 1.6v54.4H59.2a1.6 1.6 0 0 0-1.13.47l-2.73 2.73H40.66l-2.73-2.7a1.6 1.6 0 0 0-1.13-.47H11.2V4.8zm81.6 59.6a4.4 4.4 0 0 1-4.4 4.4H7.6a4.4 4.4 0 0 1-4.4-4.4v-2h32.94l2.73 2.73a1.6 1.6 0 0 0 1.13.47h16a1.6 1.6 0 0 0 1.13-.47l2.73-2.73H92.8v2zm-11.2-10V8A1.6 1.6 0 0 0 80 6.4H16A1.6 1.6 0 0 0 14.4 8v46.4A1.6 1.6 0 0 0 16 56h64a1.6 1.6 0 0 0 .61-.12c.2-.08.37-.2.52-.35a1.6 1.6 0 0 0 .47-1.13zm-3.2-1.6H17.6V9.6h60.8v43.2zm-48-3.2h40A1.6 1.6 0 0 0 72 48v-9.6a1.6 1.6 0 0 0-1.6-1.6h-40a1.6 1.6 0 0 0-1.6 1.6V48a1.6 1.6 0 0 0 1.6 1.6zm32-9.6h6.4v6.4h-6.4V40zM32 40h27.2v6.4H32V40z"/><use xlink:href="#B"/><path d="M43.2 41.6h-1.6a1.6 1.6 0 0 0 0 3.2h1.6a1.6 1.6 0 0 0 0-3.2zm6.4 0H48a1.6 1.6 0 0 0 0 3.2h1.6a1.6 1.6 0 1 0 0-3.2zm6.4 0h-1.6a1.6 1.6 0 0 0 0 3.2H56a1.6 1.6 0 1 0 0-3.2zM26.1 28.92a1.6 1.6 0 0 0 1.3-2.53c-1.16-1.63-1.8-3.58-1.8-5.58s.63-3.95 1.8-5.58a1.6 1.6 0 0 0-.36-2.25 1.6 1.6 0 0 0-2.24.39 12.8 12.8 0 0 0 0 14.88c.15.2.34.38.57.5s.48.18.73.18zm5.8-3.32a1.6 1.6 0 0 0 1.3-2.53 3.2 3.2 0 0 1 0-3.69 1.6 1.6 0 0 0 .29-1.19c-.03-.2-.1-.4-.22-.6s-.26-.34-.43-.46-.37-.2-.57-.26-.42-.05-.63-.02-.4.1-.6.22-.33.26-.45.43a6.4 6.4 0 0 0 0 7.45c.15.2.34.37.57.5s.48.18.73.17h0zm28.34-2.04v-2.24a.7.7 0 0 0-.71-.7c-1.38-.01-2.75.12-4.1.37a6.4 6.4 0 0 0-2.65-1.53 4.9 4.9 0 0 0 1.44-5.45 4.9 4.9 0 0 0-4.62-3.23 4.9 4.9 0 0 0-4.62 3.23 4.9 4.9 0 0 0 1.44 5.45 6.4 6.4 0 0 0-2.65 1.53 21.8 21.8 0 0 0-4.11-.37.7.7 0 0 0-.7.7v2.24a2.3 2.3 0 0 0-1.03.77 2.1 2.1 0 0 0-.4 1.23v1.42c0 .44.14.86.4 1.22s.6.63 1.02.77v2.24a.7.7 0 0 0 .2.5c.07.07.14.12.23.15a.7.7 0 0 0 .27.05 16.5 16.5 0 0 1 9.58 2.75.7.7 0 0 0 .4.12.7.7 0 0 0 .4-.12c2.82-1.88 6.16-2.84 9.54-2.75a.7.7 0 0 0 .7-.71v-2.24a2.1 2.1 0 0 0 1.02-.77c.25-.37.4-.78.4-1.22v-1.42a2.1 2.1 0 0 0-1.44-2zm-14.15-7.9c0-.7.2-1.38.6-1.96s.94-1.03 1.6-1.3a3.5 3.5 0 0 1 2.04-.2c.68.14 1.3.47 1.8.97s.83 1.12.97 1.8.07 1.4-.2 2.04a3.7 3.7 0 0 1-1.3 1.6c-.58.4-1.26.6-1.96.6a3.5 3.5 0 0 1-2.5-1.04 3.6 3.6 0 0 1-1.05-2.5h.02zm2.12 4.92h2.83c.96 0 1.9.28 2.7.8-1.45.44-2.83 1.07-4.1 1.9-1.28-.8-2.66-1.45-4.1-1.9.8-.5 1.73-.78 2.68-.78l.02-.02zm-9.23 4.92c-.01-.1 0-.2.03-.3s.08-.18.15-.25.15-.13.24-.17.2-.06.3-.06a.8.8 0 0 1 .3.06c.1.04.17.1.24.17s.12.16.15.25.04.2.03.3v1.42c-.02.18-.1.34-.23.46a.7.7 0 0 1-.48.18c-.18 0-.35-.07-.48-.18s-.2-.28-.23-.46V25.5zm1.4 3.4a2.1 2.1 0 0 0 1.02-.77c.25-.37.4-.78.4-1.22V25.5c0-.44-.14-.87-.4-1.22s-.6-.63-1.03-.78V22a15.9 15.9 0 0 1 8.52 2.46v8.3a17.6 17.6 0 0 0-8.54-2.3l.01-1.6zm9.94 3.85V24.5a15.9 15.9 0 0 1 8.52-2.46v1.52c-.4.15-.77.42-1.03.78s-.4.8-.4 1.22V27c0 .44.14.86.4 1.22s.6.63 1.02.77v1.54a17.6 17.6 0 0 0-8.54 2.27l.01-.04zm9.93-5.84c-.02.18-.1.34-.23.46a.7.7 0 0 1-.48.18c-.18 0-.35-.07-.48-.18s-.2-.28-.23-.46V25.5c-.01-.1 0-.2.03-.3s.08-.18.15-.25.15-.13.24-.17.2-.06.3-.06a.8.8 0 0 1 .3.06c.1.04.17.1.24.17s.12.16.15.25.04.2.03.3v1.42z"/></g><defs><clipPath id="A"><path fill="#fff" d="M0 0h96v72H0z"/></clipPath><path id="B" d="M36.8 41.6h-1.6a1.6 1.6 0 0 0-1.6 1.6 1.6 1.6 0 0 0 1.6 1.6h1.6a1.6 1.6 0 0 0 1.6-1.6 1.6 1.6 0 0 0-1.6-1.6z"/></defs></svg>