<svg xmlns="http://www.w3.org/2000/svg" width="96" height="96" fill="#ffa819" xmlns:v="https://vecta.io/nano"><path d="M94.4 51.2c-.42 0-.82.17-1.12.46s-.46.7-.46 1.12V68.8a4.8 4.8 0 0 1-4.81 4.82h-1.58v-3.17a6.4 6.4 0 0 0-4.98-6.23 7.9 7.9 0 0 0 1.78-4.97V52.8a8 8 0 0 0-8.02-8h-6.4c-.42 0-.82.17-1.12.46s-.46.7-.46 1.12V59.2A7.9 7.9 0 0 0 69 64.17a6.4 6.4 0 0 0-4.99 6.23v3.17h-4.8V71.7c.93-.33 1.73-.94 2.3-1.75a4.7 4.7 0 0 0 .86-2.76V65.6a4.8 4.8 0 0 0-9.6 0v1.58c-.01 1 .3 1.95.86 2.76a4.7 4.7 0 0 0 2.3 1.75v1.9H49.6V40H88c.42 0 .82-.17 1.12-.46s.46-.7.46-1.12-.17-.82-.46-1.12-.7-.46-1.12-.46h-4.8v-3.17a6.3 6.3 0 0 0-1.32-3.85 11.2 11.2 0 0 0 4.52-8.94 14.4 14.4 0 0 0-2.3-7.9 14.4 14.4 0 0 0-6.25-5.34 14.3 14.3 0 0 0-8.16-1.04 14.4 14.4 0 0 0-7.39 3.6 4.8 4.8 0 0 0-8.44-2.02A4.8 4.8 0 0 0 57.6 16a4.6 4.6 0 0 0 .87-.09 14.3 14.3 0 0 0-.87 4.89 11.2 11.2 0 0 0 4.53 8.94c-.86 1.1-1.32 2.46-1.33 3.85v3.17H49.6V8c0-.42-.17-.82-.46-1.12s-.7-.46-1.12-.46-.82.17-1.12.46-.46.7-.46 1.12v28.8H17.6v-3.17c0-.84.33-1.65.93-2.24a3.2 3.2 0 0 1 2.24-.93h9.63c.66 0 1.3.2 1.84.6s.94.92 1.15 1.55c.15.4.45.72.84.9s.83.2 1.23.04.72-.45.9-.84.2-.83.04-1.23a6.4 6.4 0 0 0-4.6-4.08 7.9 7.9 0 0 0 1.79-4.98V16a8 8 0 0 0-8-7.75 8 8 0 0 0-8 7.75v6.4a7.9 7.9 0 0 0 1.78 4.97 6.4 6.4 0 0 0-4.99 6.23v3.17H3.17V27.2c0-.42-.17-.82-.46-1.12s-.7-.46-1.12-.46-.82.17-1.12.46-.46.7-.46 1.12v41.6a8 8 0 0 0 8 7.98h24.9l-3.6 9.62h-6.9a8 8 0 0 0-8 8c0 .42.17.82.46 1.12s.7.46 1.12.46h41.6c.42 0 .82-.17 1.12-.46s.46-.7.46-1.12-.17-.82-.46-1.12-.7-.46-1.12-.46H17.87a4.8 4.8 0 0 1 4.53-3.17h51.2a4.8 4.8 0 0 1 4.53 3.17H64c-.42 0-.82.17-1.12.46s-.46.7-.46 1.12.17.82.46 1.12.7.46 1.12.46h16c.42 0 .82-.17 1.12-.46s.46-.7.46-1.12a8 8 0 0 0-7.97-8h-6.9l-3.62-9.62H88a8 8 0 0 0 7.99-8V52.8c0-.42-.17-.82-.46-1.12s-.7-.46-1.12-.46v-.02zM56 65.6c0-.42.17-.82.46-1.12s.7-.46 1.12-.46.82.17 1.12.46.46.7.46 1.12v1.58c0 .42-.17.82-.46 1.12s-.7.46-1.12.46-.82-.17-1.12-.46-.46-.7-.46-1.12V65.6zm0-54.4c0-.3.1-.62.27-.88s.42-.46.7-.58.6-.15.9-.1.6.2.8.43.37.5.43.8.03.63-.1.9-.32.54-.58.7-.57.27-.88.27c-.42 0-.82-.17-1.12-.46s-.46-.7-.46-1.12zm4.8 9.6a11.2 11.2 0 1 1 22.4 0c-.01 1.4-.38 2.76-1.07 3.96a8.2 8.2 0 0 1-2.9 2.92 5.9 5.9 0 0 0-1.01-.32A7.9 7.9 0 0 0 80 22.4v-3.17c0-.42-.17-.82-.46-1.12s-.7-.46-1.12-.46c-.8 0-1.6-.16-2.36-.48a6.2 6.2 0 0 1-2-1.34l-.94-.94c-.15-.15-.32-.27-.52-.35a1.6 1.6 0 0 0-.6-.12c-.2 0-.42.04-.6.12s-.37.2-.52.35l-.93.94c-1.15 1.14-2.7 1.8-4.33 1.8-.42 0-.82.17-1.12.46s-.46.7-.46 1.12v3.17a7.9 7.9 0 0 0 1.79 4.97 6.2 6.2 0 0 0-1.01.32 8 8 0 0 1-3.96-6.89l-.05.02zm6.4 1.58v-1.73a9.4 9.4 0 0 0 4.8-2.37 9.5 9.5 0 0 0 4.8 2.37v1.74A4.8 4.8 0 0 1 72 27a4.8 4.8 0 0 1-4.8-4.61h0zM64 33.6a3.2 3.2 0 0 1 .24-1.22c.16-.4.4-.74.7-1.03s.65-.53 1.04-.68a3.4 3.4 0 0 1 1.22-.23h9.58c.84 0 1.65.33 2.24.93a3.2 3.2 0 0 1 .93 2.24v3.17H64V33.6zM20.8 22.4v-4.8h9.6v4.8a4.8 4.8 0 0 1-4.8 4.61 4.8 4.8 0 0 1-4.8-4.61zm4.8-11.2a4.8 4.8 0 0 1 4.53 3.17h-9.06a4.8 4.8 0 0 1 4.53-3.17zm44.8 48v-4.8H80v4.8a4.8 4.8 0 0 1-4.8 4.61 4.8 4.8 0 0 1-4.8-4.61zm0-11.2h4.8a4.8 4.8 0 0 1 4.53 3.17H70.4V48zM3.17 68.8V40H46.4v33.6H35.2v-3.17a6.4 6.4 0 0 0-4.98-6.23A7.9 7.9 0 0 0 32 59.25v-3.17c0-.42-.17-.82-.46-1.12s-.7-.46-1.12-.46a14.2 14.2 0 0 1-7.92-2.37l-.8-.53c-.3-.2-.68-.3-1.05-.27s-.7.2-.97.46l-3.2 3.17c-.15.15-.27.33-.35.52a1.6 1.6 0 0 0-.12.62v3.17a7.9 7.9 0 0 0 1.79 4.97 7 7 0 0 0-.9.28 8 8 0 0 1-4.07-6.94 11.2 11.2 0 0 1 11.73-11.15 11.6 11.6 0 0 1 7.63 3.72c1.98 2.16 3.06 5 3.03 7.93a12 12 0 0 0 3.54 8.54l1.73 1.73a1.6 1.6 0 1 0 2.27-2.27L41 64.34c-.82-.82-1.48-1.8-1.92-2.88a8.9 8.9 0 0 1-.67-3.4 14.6 14.6 0 0 0-13.73-14.84 14.2 14.2 0 0 0-9.16 2.75 4.8 4.8 0 0 0-3.84-2.74 4.8 4.8 0 0 0-4.93 6.57 4.8 4.8 0 0 0 3.7 2.93c-.55 1.52-.84 3.13-.85 4.75a11.2 11.2 0 0 0 4.58 9.02 6.3 6.3 0 0 0-1.38 3.96v3.17H8a4.8 4.8 0 0 1-4.83-4.82zm16.04-9.6v-2.54l1.8-1.8a17.5 17.5 0 0 0 7.8 2.68v1.67a4.8 4.8 0 1 1-9.61-.01zm0 8h9.6c.84 0 1.65.33 2.24.93a3.2 3.2 0 0 1 .93 2.24v3.17H16v-3.17a3.2 3.2 0 0 1 .24-1.22c.16-.4.4-.74.7-1.03s.65-.53 1.04-.68a3.4 3.4 0 0 1 1.22-.23zm-8-17.6c-.3 0-.62-.1-.88-.27s-.46-.42-.58-.7-.15-.6-.1-.9.2-.6.43-.8.5-.37.8-.43.63-.03.9.1.54.32.7.58.27.57.27.88c0 .42-.17.82-.46 1.12s-.7.46-1.12.46zm52.12 36.8H32.7l3.6-9.62h23.4l3.63 9.62zm3.87-12.8v-3.17c0-.84.33-1.65.93-2.24a3.2 3.2 0 0 1 2.24-.93h9.6c.84 0 1.65.33 2.24.93a3.2 3.2 0 0 1 .93 2.24v3.17H67.2zM88 0H8a8 8 0 0 0-5.65 2.35A8 8 0 0 0 0 8v12.8c0 .42.17.82.46 1.12s.7.46 1.12.46.82-.17 1.12-.46.46-.7.46-1.12V8A4.8 4.8 0 0 1 8 3.17h80a4.8 4.8 0 0 1 4.8 4.8V46.4c0 .42.17.82.46 1.12s.7.46 1.12.46.82-.17 1.12-.46.46-.7.46-1.12V8A8 8 0 0 0 88 0h0zM52.8 48a4.8 4.8 0 0 0 8.19 3.39 4.8 4.8 0 0 0-3.39-8.19 4.8 4.8 0 0 0-4.8 4.8zm6.4 0c0 .3-.1.62-.27.88s-.42.46-.7.58-.6.15-.9.1-.6-.2-.8-.43-.37-.5-.43-.8-.03-.63.1-.9.32-.54.58-.7.57-.27.88-.27c.42 0 .82.17 1.12.46s.46.7.46 1.12zM16 11.2a4.8 4.8 0 0 0-8.19-3.39A4.8 4.8 0 0 0 11.2 16a4.8 4.8 0 0 0 4.8-4.8zm-6.4 0c0-.3.1-.62.27-.88s.42-.46.7-.58.6-.15.9-.1.6.2.8.43.37.5.43.8.03.63-.1.9-.32.54-.58.7-.57.27-.88.27c-.42 0-.82-.17-1.12-.46s-.46-.7-.46-1.12z"/></svg>