<svg xmlns="http://www.w3.org/2000/svg" width="24" height="24" fill="#2243b6" fill-rule="evenodd" xmlns:v="https://vecta.io/nano"><path d="M0 12a12 12 0 1 1 24 0 12 12 0 1 1-24 0zm12-6.4l-2.64.04a4.7 4.7 0 0 0-1.55.3c-.42.16-.78.38-1.13.74s-.57.7-.74 1.13c-.16.4-.27.87-.3 1.55A46 46 0 0 0 5.6 12l.04 2.64a4.7 4.7 0 0 0 .3 1.55c.16.42.38.78.74 1.13s.7.58 1.13.74a4.7 4.7 0 0 0 1.55.3 45.5 45.5 0 0 0 2.64.04l2.64-.04a4.7 4.7 0 0 0 1.55-.3c.42-.16.78-.38 1.13-.74s.57-.7.74-1.13c.16-.4.27-.87.3-1.55s.04-.9.04-2.64-.01-1.96-.04-2.64-.14-1.15-.3-1.55c-.16-.42-.38-.78-.74-1.13s-.7-.57-1.13-.74a4.7 4.7 0 0 0-1.55-.3A45.4 45.4 0 0 0 12 5.6h0z"/><path d="M11.43 6.75H12l2.6.04c.62.03.96.13 1.2.22a2.1 2.1 0 0 1 .74.48 1.9 1.9 0 0 1 .48.74 3.1 3.1 0 0 1 .22 1.2l.04 2.6-.04 2.6c-.03.62-.13.96-.22 1.2a2.1 2.1 0 0 1-.48.74 1.9 1.9 0 0 1-.74.48 3.1 3.1 0 0 1-1.2.22l-2.6.04a44.6 44.6 0 0 1-2.59-.04c-.62-.03-.96-.13-1.2-.22a2.1 2.1 0 0 1-.74-.48 1.9 1.9 0 0 1-.48-.74 3.1 3.1 0 0 1-.22-1.2L6.75 12l.04-2.6c.03-.62.13-.96.22-1.2a2.1 2.1 0 0 1 .48-.74 1.9 1.9 0 0 1 .74-.48 3.1 3.1 0 0 1 1.2-.22l2-.03zm4 1.06c-.42 0-.77.34-.77.77s.34.77.77.77.77-.34.77-.77-.34-.77-.77-.77h0zM12 8.7A3.3 3.3 0 0 0 8.71 12 3.3 3.3 0 0 0 12 15.29 3.3 3.3 0 0 0 15.29 12 3.3 3.3 0 0 0 12 8.71h0zm0 1.17c1.18 0 2.13.96 2.13 2.13s-.96 2.13-2.13 2.13-2.13-.96-2.13-2.13.96-2.13 2.13-2.13h0z"/></svg>